<mxfile host="app.diagrams.net" modified="2020-11-13T12:21:12.751Z" agent="5.0 (Macintosh; Intel Mac OS X 10_15_5) AppleWebKit/605.1.15 (KHTML, like Gecko) Version/13.1.1 Safari/605.1.15" etag="iE-6x5Y4vSptL0AXFucT" version="13.9.7" type="github">
  <diagram id="6I0OCvxSQrVGMHxT2VVA" name="Page-1">
    <mxGraphModel dx="1298" dy="882" grid="1" gridSize="3" guides="1" tooltips="1" connect="1" arrows="1" fold="1" page="1" pageScale="1" pageWidth="850" pageHeight="1100" background="#ffffff" math="0" shadow="0">
      <root>
        <mxCell id="0" />
        <mxCell id="1" parent="0" />
        <mxCell id="Po9p0U9-VZhH0MpB2hrd-1" value="&lt;table border=&quot;1&quot; width=&quot;100%&quot; cellpadding=&quot;4&quot; style=&quot;width: 100% ; height: 100% ; border-collapse: collapse&quot;&gt;&lt;tbody&gt;&lt;tr style=&quot;background-color: #a7c942 ; color: #ffffff ; border: 1px solid #98bf21&quot;&gt;&lt;th align=&quot;left&quot;&gt;&lt;font color=&quot;#1a1a1a&quot;&gt;Leader Election&lt;/font&gt;&lt;/th&gt;&lt;th align=&quot;left&quot;&gt;&lt;font color=&quot;#1a1a1a&quot;&gt;Born Time&lt;/font&gt;&lt;/th&gt;&lt;th align=&quot;left&quot;&gt;&lt;font color=&quot;#1a1a1a&quot;&gt;Comment&lt;/font&gt;&lt;/th&gt;&lt;/tr&gt;&lt;tr style=&quot;border: 1px solid #98bf21&quot;&gt;&lt;td&gt;Paxos&lt;/td&gt;&lt;td&gt;1990&lt;/td&gt;&lt;td&gt;Hard to understand&lt;/td&gt;&lt;/tr&gt;&lt;tr style=&quot;background-color: #eaf2d3 ; border: 1px solid #98bf21&quot;&gt;&lt;td&gt;ZAB&lt;br&gt;&lt;/td&gt;&lt;td&gt;2007&lt;/td&gt;&lt;td&gt;For Zookeeper&lt;/td&gt;&lt;/tr&gt;&lt;tr style=&quot;border: 1px solid #98bf21&quot;&gt;&lt;td&gt;Raft&lt;/td&gt;&lt;td&gt;2014&lt;/td&gt;&lt;td&gt;very popular&lt;/td&gt;&lt;/tr&gt;&lt;tr style=&quot;background-color: #eaf2d3 ; border: 1px solid #98bf21&quot;&gt;&lt;td&gt;Elasticsearch&lt;/td&gt;&lt;td&gt;2010&lt;/td&gt;&lt;td&gt;modified and bug fixed, more and more like Raft&lt;/td&gt;&lt;/tr&gt;&lt;/tbody&gt;&lt;/table&gt;" style="text;html=1;strokeColor=#82b366;overflow=fill;fillColor=#D5E8D4;strokeWidth=3;" parent="1" vertex="1">
          <mxGeometry x="321" y="159" width="680" height="380" as="geometry" />
        </mxCell>
        <mxCell id="a2re_eb5z629fmqAJfj0-1" value="&lt;b&gt;Fault Detection&lt;/b&gt;" style="ellipse;whiteSpace=wrap;html=1;aspect=fixed;fillColor=#d5e8d4;strokeColor=#82b366;strokeWidth=3;" vertex="1" parent="1">
          <mxGeometry x="276" y="876" width="80" height="80" as="geometry" />
        </mxCell>
        <mxCell id="a2re_eb5z629fmqAJfj0-2" value="&lt;b&gt;Master Election&lt;/b&gt;" style="ellipse;whiteSpace=wrap;html=1;aspect=fixed;fillColor=#d5e8d4;strokeColor=#82b366;strokeWidth=3;" vertex="1" parent="1">
          <mxGeometry x="417" y="678" width="80" height="80" as="geometry" />
        </mxCell>
        <mxCell id="a2re_eb5z629fmqAJfj0-3" value="&lt;b&gt;Log Replication&lt;/b&gt;" style="ellipse;whiteSpace=wrap;html=1;aspect=fixed;fillColor=#d5e8d4;strokeColor=#82b366;strokeWidth=3;" vertex="1" parent="1">
          <mxGeometry x="540" y="876" width="80" height="80" as="geometry" />
        </mxCell>
        <mxCell id="a2re_eb5z629fmqAJfj0-4" value="" style="endArrow=classic;startArrow=classic;html=1;entryX=0;entryY=1;entryDx=0;entryDy=0;exitX=0.625;exitY=0;exitDx=0;exitDy=0;exitPerimeter=0;" edge="1" parent="1" source="a2re_eb5z629fmqAJfj0-1" target="a2re_eb5z629fmqAJfj0-2">
          <mxGeometry width="50" height="50" relative="1" as="geometry">
            <mxPoint x="339" y="888" as="sourcePoint" />
            <mxPoint x="683" y="561" as="targetPoint" />
          </mxGeometry>
        </mxCell>
        <mxCell id="a2re_eb5z629fmqAJfj0-5" value="" style="endArrow=classic;startArrow=classic;html=1;entryX=1;entryY=1;entryDx=0;entryDy=0;exitX=0.625;exitY=0;exitDx=0;exitDy=0;exitPerimeter=0;" edge="1" parent="1" target="a2re_eb5z629fmqAJfj0-2">
          <mxGeometry width="50" height="50" relative="1" as="geometry">
            <mxPoint x="570" y="876" as="sourcePoint" />
            <mxPoint x="672.7157287525379" y="731.2842712474621" as="targetPoint" />
          </mxGeometry>
        </mxCell>
        <mxCell id="a2re_eb5z629fmqAJfj0-6" value="" style="endArrow=classic;startArrow=classic;html=1;entryX=0;entryY=0.5;entryDx=0;entryDy=0;" edge="1" parent="1" source="a2re_eb5z629fmqAJfj0-1" target="a2re_eb5z629fmqAJfj0-3">
          <mxGeometry width="50" height="50" relative="1" as="geometry">
            <mxPoint x="357" y="915" as="sourcePoint" />
            <mxPoint x="404" y="909" as="targetPoint" />
          </mxGeometry>
        </mxCell>
        <mxCell id="a2re_eb5z629fmqAJfj0-7" value="&lt;span style=&quot;letter-spacing: 0pt ; font-family: &amp;#34;腾讯体 w7&amp;#34; ; color: rgb(83 , 88 , 95) ; vertical-align: baseline&quot;&gt;&lt;font style=&quot;font-size: 18px&quot;&gt;Consensus&lt;/font&gt;&lt;/span&gt;&lt;span style=&quot;font-size: medium&quot;&gt;&lt;/span&gt;" style="text;html=1;strokeColor=none;fillColor=none;align=center;verticalAlign=middle;whiteSpace=wrap;rounded=0;" vertex="1" parent="1">
          <mxGeometry x="402" y="828" width="102" height="20" as="geometry" />
        </mxCell>
      </root>
    </mxGraphModel>
  </diagram>
</mxfile>
